<?xml version="1.0" encoding="UTF-8" standalone="no"?>
<svg
   xmlns:dc="http://purl.org/dc/elements/1.1/"
   xmlns:cc="http://creativecommons.org/ns#"
   xmlns:rdf="http://www.w3.org/1999/02/22-rdf-syntax-ns#"
   xmlns:svg="http://www.w3.org/2000/svg"
   xmlns="http://www.w3.org/2000/svg"
   version="1.1"
   id="Layer_1"
   x="0px"
   y="0px"
   viewBox="0 0 120 120"
   xml:space="preserve"
   width="120"
   height="120"><metadata
     id="metadata13"><rdf:RDF><cc:Work
         rdf:about=""><dc:format>image/svg+xml</dc:format><dc:type
           rdf:resource="http://purl.org/dc/dcmitype/StillImage" /><dc:title></dc:title></cc:Work></rdf:RDF></metadata><defs
     id="defs11" /><style
     type="text/css"
     id="style3">
	.st0{fill:#231F20;}
</style><path
     style="opacity:1;fill:#ffffff;fill-opacity:1;stroke:none;stroke-width:12;stroke-linecap:square;stroke-linejoin:miter;stroke-miterlimit:4;stroke-dasharray:none;stroke-dashoffset:0;stroke-opacity:1"
     d="M 0 0 L 0 120 L 120 120 L 120 0 L 0 0 z M 42.599609 8.3496094 L 50.699219 9.75 L 53.099609 17.550781 L 53.300781 41.849609 C 54.700781 49.249609 56.299609 56.649999 55.599609 64.75 C 54.999609 68.65 53.800781 72.250782 50.800781 75.050781 L 50.800781 84.349609 L 54.099609 85.050781 C 54.899609 82.050781 54.4 78.950392 54.5 75.650391 C 60.4 70.250391 58.999609 61.350391 59.099609 53.650391 C 57.299609 45.350391 56.300781 36.649609 56.800781 27.349609 C 56.600781 21.949609 57.099609 15.249218 54.099609 10.449219 L 62.199219 11.75 C 67.399219 19.65 63.799219 31.250782 65.199219 40.550781 C 67.599219 49.650782 68.199609 60.650391 66.599609 70.150391 C 65.899609 72.750391 64.3 75.150391 62.5 77.150391 L 62.5 86.150391 C 63.6 86.650391 64.700781 86.949219 65.800781 86.949219 C 66.500781 83.749219 65.7 80.950782 66 77.550781 C 72.9 71.750782 70.3 61.049999 71 52.75 C 68.1 42.25 68.199609 29.649609 68.099609 18.849609 L 65.699219 12.449219 C 68.399219 12.849219 71.100391 13.25 73.900391 13.75 L 76.699219 21.050781 C 76.399219 31.350781 76.600391 41.55 78.900391 51.25 C 78.600391 60.849999 81.499219 72.449219 74.199219 79.449219 L 74.300781 88.25 C 75.500781 89.15 78.500781 87.849218 78.300781 90.449219 L 80.099609 96.25 C 79.299609 100.55 78.399219 104.85 77.699219 109.25 L 71.5 111.65039 L 63.400391 110.25 L 69.400391 107.94922 C 70.500391 103.64922 71.3 99.25 72 94.75 C 71.6 92.35 70.700781 90.150781 69.800781 88.050781 C 68.700781 88.850781 68.6 90.24961 68 91.349609 L 68.699219 93.650391 L 66.300781 107.05078 L 60 109.55078 L 52 108.25 L 58 105.84961 C 59.1 101.24961 59.999609 96.64922 60.599609 91.949219 C 59.899609 90.049216 59.300391 87.950781 58.400391 86.050781 C 57.600391 86.950782 56.999609 88.249219 56.599609 89.449219 L 57.300781 91.150391 C 56.300781 95.750393 55.800391 100.45078 54.900391 105.05078 L 48.300781 107.65039 L 39.900391 106.25 C 42.200391 105.25 45.000391 104.95 46.900391 103.25 L 49.199219 90.349609 C 48.399219 88.24961 48.000781 85.950781 46.800781 84.050781 L 42.900391 92.050781 L 42.800781 73.349609 C 50.600781 65.449609 47.100391 51.65 45.400391 41.75 C 44.800391 32.65 45.5 24.049219 45 14.949219 L 42.599609 8.3496094 z "
     id="rect4179" /></svg>